<svg width="14" height="16" viewBox="0 0 14 16" fill="none" xmlns="http://www.w3.org/2000/svg">
<g clip-path="url(#clip0_3_61)">
<path d="M12.5995 1.33333H1.39945V14.2708L6.02601 10.0417L6.99945 9.15625L7.97289 10.0417L12.5995 14.2708V1.33333ZM12.7307 0C12.8984 0 13.0588 0.03125 13.212 0.09375C13.4526 0.184028 13.644 0.326389 13.7862 0.520833C13.9284 0.715278 13.9995 0.930556 13.9995 1.16667V14.5938C13.9995 14.8299 13.9284 15.0451 13.7862 15.2396C13.644 15.434 13.4526 15.5764 13.212 15.6667C13.0734 15.7222 12.913 15.75 12.7307 15.75C12.3807 15.75 12.0781 15.6389 11.8229 15.4167L6.99945 11L2.17601 15.4167C1.91351 15.6458 1.61091 15.7604 1.2682 15.7604C1.10049 15.7604 0.940076 15.7292 0.786951 15.6667C0.546326 15.5764 0.354919 15.434 0.212732 15.2396C0.0705444 15.0451 -0.000549316 14.8299 -0.000549316 14.5938V1.16667C-0.000549316 0.930556 0.0705444 0.715278 0.212732 0.520833C0.354919 0.326389 0.546326 0.184028 0.786951 0.09375C0.940076 0.03125 1.10049 0 1.2682 0H12.7307Z" fill="#707070"/>
</g>
<defs>
<clipPath id="clip0_3_61">
<rect width="14" height="16" fill="white" transform="translate(-0.000549316)"/>
</clipPath>
</defs>
</svg>
