<svg width="39" height="39" viewBox="0 0 39 39" fill="none" xmlns="http://www.w3.org/2000/svg">
<path d="M32.5001 17.875H37.3751V21.125H32.5001V17.875ZM1.62506 17.875H6.50006V21.125H1.62506V17.875ZM21.1251 1.625V6.5H17.8751V1.625H21.1251ZM7.99506 5.6875L11.4563 9.165L9.14881 11.4563L5.68756 8.01125L7.99506 5.6875ZM27.5438 9.14875L30.9888 5.6875L33.3126 8.01125L29.8513 11.4563L27.5438 9.14875V9.14875ZM19.5001 9.75C22.0859 9.75 24.5659 10.7772 26.3944 12.6057C28.2228 14.4342 29.2501 16.9141 29.2501 19.5C29.2501 23.1075 27.2838 26.26 24.3751 27.95V30.875C24.3751 31.306 24.2039 31.7193 23.8991 32.024C23.5944 32.3288 23.181 32.5 22.7501 32.5H16.2501C15.8191 32.5 15.4058 32.3288 15.101 32.024C14.7963 31.7193 14.6251 31.306 14.6251 30.875V27.95C11.7163 26.26 9.75006 23.1075 9.75006 19.5C9.75006 16.9141 10.7773 14.4342 12.6058 12.6057C14.4342 10.7772 16.9142 9.75 19.5001 9.75V9.75ZM22.7501 34.125V35.75C22.7501 36.181 22.5789 36.5943 22.2741 36.899C21.9694 37.2038 21.556 37.375 21.1251 37.375H17.8751C17.4441 37.375 17.0308 37.2038 16.726 36.899C16.4213 36.5943 16.2501 36.181 16.2501 35.75V34.125H22.7501ZM17.8751 29.25H21.1251V25.7887C23.9363 25.0737 26.0001 22.5225 26.0001 19.5C26.0001 17.7761 25.3152 16.1228 24.0963 14.9038C22.8773 13.6848 21.224 13 19.5001 13C17.7762 13 16.1229 13.6848 14.9039 14.9038C13.6849 16.1228 13.0001 17.7761 13.0001 19.5C13.0001 22.5225 15.0638 25.0737 17.8751 25.7887V29.25Z" fill="url(#paint0_linear_3_47)"/>
<defs>
<linearGradient id="paint0_linear_3_47" x1="45.3248" y1="14.4505" x2="17.4432" y2="-6.74965" gradientUnits="userSpaceOnUse">
<stop stop-color="#2EB695"/>
<stop offset="1" stop-color="#1EA5DE"/>
</linearGradient>
</defs>
</svg>
