<svg width="13" height="13" viewBox="0 0 13 13" fill="none" xmlns="http://www.w3.org/2000/svg">
<path fill-rule="evenodd" clip-rule="evenodd" d="M6.5 12C9.53757 12 12 9.53757 12 6.5C12 3.46243 9.53757 1 6.5 1C3.46243 1 1 3.46243 1 6.5C1 9.53757 3.46243 12 6.5 12ZM6.50002 11.5905C9.31141 11.5905 11.5905 9.31141 11.5905 6.50002C11.5905 3.68863 9.31141 1.40955 6.50002 1.40955C3.68863 1.40955 1.40955 3.68863 1.40955 6.50002C1.40955 9.31141 3.68863 11.5905 6.50002 11.5905Z" fill="url(#paint0_linear_3_54)"/>
<path d="M6.5 12.1528C9.62194 12.1528 12.1528 9.62194 12.1528 6.5H11.8472C11.8472 9.45319 9.45319 11.8472 6.5 11.8472V12.1528ZM12.1528 6.5C12.1528 3.37806 9.62194 0.847222 6.5 0.847222V1.15278C9.45319 1.15278 11.8472 3.54681 11.8472 6.5H12.1528ZM6.5 0.847222C3.37806 0.847222 0.847222 3.37806 0.847222 6.5H1.15278C1.15278 3.54681 3.54681 1.15278 6.5 1.15278V0.847222ZM0.847222 6.5C0.847222 9.62194 3.37806 12.1528 6.5 12.1528V11.8472C3.54681 11.8472 1.15278 9.45319 1.15278 6.5H0.847222ZM6.50002 11.7433C9.39578 11.7433 11.7433 9.39578 11.7433 6.50002H11.4377C11.4377 9.22703 9.22703 11.4377 6.50002 11.4377V11.7433ZM11.7433 6.50002C11.7433 3.60425 9.39578 1.25677 6.50002 1.25677V1.56232C9.22703 1.56232 11.4377 3.773 11.4377 6.50002H11.7433ZM6.50002 1.25677C3.60425 1.25677 1.25677 3.60425 1.25677 6.50002H1.56232C1.56232 3.773 3.773 1.56232 6.50002 1.56232V1.25677ZM1.25677 6.50002C1.25677 9.39578 3.60425 11.7433 6.50002 11.7433V11.4377C3.773 11.4377 1.56232 9.22703 1.56232 6.50002H1.25677Z" fill="url(#paint1_linear_3_54)"/>
<path d="M4.05554 6.49996L5.88888 8.33329L8.94443 4.66663" stroke="url(#paint2_linear_3_54)" stroke-width="0.611111" stroke-linecap="round" stroke-linejoin="round"/>
<defs>
<linearGradient id="paint0_linear_3_54" x1="14.4461" y1="4.94631" x2="5.86713" y2="-1.57681" gradientUnits="userSpaceOnUse">
<stop stop-color="#2EB695"/>
<stop offset="1" stop-color="#1EA5DE"/>
</linearGradient>
<linearGradient id="paint1_linear_3_54" x1="14.4461" y1="4.94631" x2="5.86713" y2="-1.57681" gradientUnits="userSpaceOnUse">
<stop stop-color="#2EB695"/>
<stop offset="1" stop-color="#1EA5DE"/>
</linearGradient>
<linearGradient id="paint2_linear_3_54" x1="10.0316" y1="5.98206" x2="7.06422" y2="2.9737" gradientUnits="userSpaceOnUse">
<stop stop-color="#2EB695"/>
<stop offset="1" stop-color="#1EA5DE"/>
</linearGradient>
</defs>
</svg>
