<svg width="8" height="8" viewBox="0 0 8 8" fill="none" xmlns="http://www.w3.org/2000/svg">
<path d="M7.66083 0.526663C7.6258 0.400152 7.54012 0.295336 7.42445 0.239138C7.30953 0.183202 7.17673 0.181372 7.06005 0.234172C6.69791 0.400675 6.13165 0.620762 5.40536 0.780207L5.35396 0.395708C5.32775 0.198624 5.17352 0.0470198 4.98199 0.0305525C3.06598 -0.139087 1.46472 0.433087 0.546913 0.874306L0.528769 0.825949C0.515161 0.790139 0.4887 0.761648 0.454679 0.745965C0.42091 0.731066 0.382857 0.730282 0.34808 0.744136L0.0890159 0.849474C0.0539869 0.86385 0.0265181 0.891296 0.0116496 0.926321C-0.00321883 0.961608 -0.00372284 1.00134 0.00938154 1.03715L2.60632 7.90767C2.61993 7.94348 2.64614 7.97223 2.68016 7.98766C2.71393 8.00334 2.75223 8.00412 2.78701 7.98975L3.04632 7.88467C3.11764 7.85566 3.15317 7.77123 3.1252 7.69726L1.36392 3.03597C2.64034 2.41727 3.80235 2.21234 4.58281 2.16032C4.58281 2.16032 4.67152 2.61592 4.73049 2.92932C4.76048 3.08929 4.90715 3.19515 5.06213 3.16875C5.88645 3.02969 6.82744 2.75262 7.76995 2.22175C7.95064 2.11981 8.0396 1.90077 7.98315 1.69584L7.66083 0.526663ZM5.38142 2.47686C5.32623 2.63082 5.18738 2.77458 4.97695 2.89612C4.96133 2.90527 4.94192 2.90606 4.92605 2.89822C4.91042 2.89037 4.89858 2.87521 4.89455 2.85692L4.75216 2.15013C4.88774 2.13314 5.32775 2.12843 5.39428 2.21365C5.42679 2.25625 5.42351 2.35741 5.38142 2.47686Z" fill="white"/>
</svg>
